<svg width="36" height="36" viewBox="0 0 36 36" fill="none" xmlns="http://www.w3.org/2000/svg">
<path opacity="0.2" d="M31.4561 5.93167L23.2689 32.9317C23.2064 33.1517 23.0784 33.3474 22.9018 33.4928C22.7252 33.6381 22.5086 33.7262 22.2806 33.7453C22.0527 33.7644 21.8244 33.7136 21.6261 33.5996C21.4279 33.4857 21.269 33.314 21.1708 33.1074L15.1872 20.8126L2.89375 14.829C2.68722 14.7308 2.51553 14.5719 2.40157 14.3736C2.28761 14.1754 2.23679 13.947 2.25588 13.7191C2.27498 13.4912 2.36308 13.2746 2.50844 13.098C2.65381 12.9214 2.84953 12.7934 3.06953 12.7309L30.0695 4.5437C30.2619 4.48979 30.4651 4.48806 30.6584 4.53871C30.8516 4.58935 31.0279 4.69054 31.169 4.83186C31.3102 4.97319 31.4112 5.14956 31.4617 5.34285C31.5121 5.53613 31.5102 5.73937 31.4561 5.93167Z" fill="#3A70E2"/>
<path d="M31.9668 4.0335C31.6838 3.75075 31.3306 3.54853 30.9436 3.44768C30.5565 3.34684 30.1495 3.351 29.7646 3.45975H29.7435L2.75192 11.6497C2.31372 11.776 1.92425 12.0325 1.6351 12.3851C1.34595 12.7378 1.17079 13.17 1.13282 13.6244C1.09484 14.0788 1.19586 14.5341 1.42247 14.9298C1.64908 15.3256 1.9906 15.6431 2.40176 15.8404L14.3436 21.6566L20.1514 33.5915C20.3321 33.977 20.6193 34.3027 20.9791 34.5302C21.3389 34.7577 21.7564 34.8775 22.1821 34.8754C22.2468 34.8754 22.3114 34.8726 22.3761 34.8669C22.8302 34.8302 23.2622 34.6554 23.6141 34.3661C23.966 34.0768 24.221 33.6867 24.3449 33.2483L32.5293 6.25678C32.5293 6.24975 32.5293 6.24272 32.5293 6.23569C32.6394 5.85173 32.6454 5.44537 32.5465 5.05834C32.4477 4.67132 32.2476 4.31759 31.9668 4.0335ZM22.1947 32.6043L22.1877 32.624V32.6141L16.5543 21.0407L23.3043 14.2907C23.5063 14.078 23.6173 13.7948 23.6136 13.5014C23.6098 13.2081 23.4916 12.9278 23.2842 12.7203C23.0767 12.5129 22.7964 12.3947 22.5031 12.3909C22.2097 12.3872 21.9265 12.4981 21.7138 12.7002L14.9638 19.4502L3.38613 13.8168H3.37629H3.39598L30.3749 5.62537L22.1947 32.6043Z" fill="#3A70E2"/>
</svg>
